<?xml version="1.0" standalone="no"?>
<!DOCTYPE svg PUBLIC "-//W3C//DTD SVG 20010904//EN"
 "http://www.w3.org/TR/2001/REC-SVG-20010904/DTD/svg10.dtd">
<svg version="1.0" xmlns="http://www.w3.org/2000/svg"
 width="512.000000pt" height="512.000000pt" viewBox="0 0 512.000000 512.000000"
 preserveAspectRatio="xMidYMid meet">
<metadata>
Created by potrace 1.11, written by Peter Selinger 2001-2013
</metadata>
<g transform="translate(0.000000,512.000000) scale(0.100000,-0.100000)"
fill="#000000" stroke="none">
<path d="M280 3050 l0 -1520 2280 0 2280 0 0 1520 0 1520 -2280 0 -2280 0 0
-1520z m3480 185 l0 -575 -150 0 -150 0 0 575 0 575 150 0 150 0 0 -575z
m-2100 190 l0 -275 245 0 245 0 0 275 0 275 150 0 150 0 0 -720 0 -720 -150 0
-150 0 0 295 0 295 -245 0 -245 0 0 -295 0 -295 -150 0 -150 0 0 720 0 720
150 0 150 0 0 -275z m1430 -445 l0 -720 -150 0 -150 0 0 720 0 720 150 0 150
0 0 -720z m572 -532 c22 -6 53 -28 73 -49 61 -67 59 -157 -4 -220 -112 -113
-281 -42 -281 119 0 39 6 58 30 90 17 23 31 42 33 42 1 0 20 7 42 15 50 18 58
18 107 3z"/>
<path d="M0 1169 c0 -16 7 -62 16 -102 44 -193 162 -347 334 -436 159 -83 -45
-76 2210 -76 1909 0 2008 1 2069 18 193 55 342 178 426 352 32 66 65 194 65
250 l0 25 -2560 0 -2560 0 0 -31z"/>
</g>
</svg>
